# xmcd
#
# Track frame offsets: 
#        150
#        17388
#        34860
#        57988
#        67918
#        99619
#        124072
#        138449
#        166198
#        187055
#
# Disc length: 3259 seconds
#
# Revision: 0
# Processed by: cddbd v1.5.2PL0 Copyright (c) Steve Scherf et al.
# Submitted via: ExactAudioCopy v1.0b1
#
DISCID=820cb90a
DTITLE=Maciej Dłużniewski - 3 Akordy
DYEAR=2010
DGENRE=Blues
TTITLE0=Bar
TTITLE1=Kroki
TTITLE2=Spacer
TTITLE3=Ja Ty My
TTITLE4=Naparstek
TTITLE5=Mała
TTITLE6=Sen Szaleńca
TTITLE7=Java Sen
TTITLE8=Deszcz i Ty
TTITLE9=Bonus Track
EXTD=
EXTT0=
EXTT1=
EXTT2=
EXTT3=
EXTT4=
EXTT5=
EXTT6=
EXTT7=
EXTT8=
EXTT9=
PLAYORDER=
